<?xml version="1.0" encoding="UTF-8" standalone="no"?>
<!-- Created with Inkscape (http://www.inkscape.org/) -->

<svg
   xmlns:dc="http://purl.org/dc/elements/1.1/"
   xmlns:cc="http://creativecommons.org/ns#"
   xmlns:rdf="http://www.w3.org/1999/02/22-rdf-syntax-ns#"
   xmlns:svg="http://www.w3.org/2000/svg"
   xmlns="http://www.w3.org/2000/svg"
   xmlns:sodipodi="http://sodipodi.sourceforge.net/DTD/sodipodi-0.dtd"
   xmlns:inkscape="http://www.inkscape.org/namespaces/inkscape"
   id="svg3172"
   height="24"
   width="24"
   version="1.0"
   inkscape:version="0.91 r13725"
   sodipodi:docname="avatar.svg">
  <defs
     id="defs8" />
  <sodipodi:namedview
     pagecolor="#ffffff"
     bordercolor="#666666"
     borderopacity="1"
     objecttolerance="10"
     gridtolerance="10"
     guidetolerance="10"
     inkscape:pageopacity="0"
     inkscape:pageshadow="2"
     inkscape:window-width="1366"
     inkscape:window-height="694"
     id="namedview6"
     showgrid="false"
     inkscape:zoom="9.8333333"
     inkscape:cx="16.423729"
     inkscape:cy="12"
     inkscape:window-x="0"
     inkscape:window-y="24"
     inkscape:window-maximized="1"
     inkscape:current-layer="svg3172" />
  <metadata
     id="metadata9">
    <rdf:RDF>
      <cc:Work
         rdf:about="">
        <dc:format>image/svg+xml</dc:format>
        <dc:type
           rdf:resource="http://purl.org/dc/dcmitype/StillImage" />
      </cc:Work>
    </rdf:RDF>
  </metadata>
  <path
     id="rect2382-4"
     d="m11.914 3.0001c-0.648-0.0039-1.217 0.1203-1.604 0.3776-0.4997 0.3319-0.72 0.374-0.8595 0.1452-0.1334-0.2189-0.2548-0.1945-0.3724 0.1162-0.0994 0.2627-0.3073 0.3827-0.5442 0.2904-0.226-0.0879-0.3187-0.0596-0.2292 0.0872 0.085951 0.14103 0.043931 0.26141-0.085937 0.26141s-0.54579 0.4449-0.91667 0.98755c-0.59122 0.86502-0.68765 1.2604-0.6875 3.0788 0.0000823 1.1409 0.11275 2.2519-0.22917 2.3236-0.20054 0.0421-0.18144 0.83511-0.085937 1.6556 0.12489 1.0729 0.31144 1.5985 0.83073 2.0913 0.80882 0.76746 1.5469 2.0959 1.5469 2.8174-1e-7 1.031-2.576 2.9018-6.2161 4.5311l-1.461 0.639v1.598h22v-1.888l-1.3464-0.55186c-3.108-1.3116-5.8151-3.3224-5.8151-4.3278 0-0.71974 0.71022-2.0507 1.5182-2.8174 0.51928-0.49273 0.73448-1.0184 0.85938-2.0913 0.0955-0.82048 0.10841-1.5901-0.08594-1.6556-0.26779-0.09022-0.25781-1.1921-0.25781-2.3236-0.001-1.6216-0.102-2.2252-0.516-2.9041-0.824-1.3509-3.499-2.4282-5.443-2.4398z"
     style="opacity:.3;fill-rule:evenodd;fill:#fff" />
  <path
     id="rect2382"
     d="m11.914 2.0001c-0.648-0.0039-1.217 0.1203-1.604 0.3776-0.4997 0.3319-0.72 0.374-0.8595 0.1452-0.1334-0.2189-0.2548-0.1945-0.3724 0.1162-0.0994 0.2627-0.3073 0.3827-0.5442 0.2904-0.226-0.0879-0.3187-0.0596-0.2292 0.0872 0.085951 0.14103 0.043931 0.26141-0.085937 0.26141s-0.54579 0.4449-0.91667 0.98755c-0.59122 0.86502-0.68765 1.2604-0.6875 3.0788 0.0000823 1.1409 0.11275 2.2519-0.22917 2.3236-0.20054 0.042098-0.18144 0.83511-0.085937 1.6556 0.12489 1.0729 0.31144 1.5985 0.83073 2.0913 0.80882 0.76746 1.5469 2.0959 1.5469 2.8174-1e-7 1.031-2.576 2.9018-6.2161 4.5311l-1.461 0.639v1.598h22v-1.888l-1.3464-0.55186c-3.108-1.3116-5.8151-3.3224-5.8151-4.3278 0-0.71974 0.71022-2.0507 1.5182-2.8174 0.51928-0.49273 0.73448-1.0184 0.85938-2.0913 0.0955-0.82048 0.10841-1.5901-0.08594-1.6556-0.269-0.0901-0.259-1.192-0.259-2.3235 0-1.6221-0.101-2.2257-0.515-2.9046-0.824-1.3509-3.499-2.4282-5.443-2.4398z"
     style="fill-rule:evenodd;fill:#a0a0ff;fill-opacity:0.94117647" />
</svg>
