<!-- Created with Inkscape (http://www.inkscape.org/) -->
<svg xmlns:rdf="http://www.w3.org/1999/02/22-rdf-syntax-ns#" xmlns="http://www.w3.org/2000/svg" height="300" width="300" version="1.1" xmlns:cc="http://creativecommons.org/ns#" xmlns:dc="http://purl.org/dc/elements/1.1/">
<metadata>
<rdf:RDF>
<cc:Work rdf:about="">
<dc:format>image/svg+xml</dc:format>
<dc:type rdf:resource="http://purl.org/dc/dcmitype/StillImage"/>
<dc:title/>
</cc:Work>
</rdf:RDF>
</metadata>
<g transform="translate(0,-752.36218)">
<g transform="matrix(1.1588437,0,0,1.1588437,17.652547,738.49602)">
<path fill="#d7c9a7" d="M10,268c-0.29,0-0.39-4-0.22-8l0.297-7.41,7.5-0.5,7.5-0.5,0.5-7.5,0.5-7.5,7.5-0.5,7.5-0.5,0.5-15.5,0.5-15.5,7.5-0.5,7.5-0.5v-14.5-14.5l-7.5-0.5-7.5-0.5v-24.5-24.5l7.5-0.5,7.5-0.5v-6.5-6.5l-15.5-0.5-15.5-0.5v-24.5-24.5l7.5-0.5,7.5-0.5,0.5-15.5,0.5-15.5,7.5-0.5,7.5-0.5,0.5-7.5,0.5-7.5h40.5,40.5l0.5,7.5,0.5,7.5,23.5,0.5,23.5,0.5v8.5,8.5l-15.5,0.5-15.5,0.5-0.296,6.75-0.296,6.75h14.8c10.2,0,15.2,0.374,16,1.2,0.698,0.698,1.2,4.04,1.2,8v6.8h6.8c3.96,0,7.3,0.502,8,1.2,1.66,1.66,1.58,14.2-0.0884,15.6-0.709,0.588-4.2,1.21-7.75,1.37l-6.46,0.303-0.5,7.5-0.5,7.5-7.5,0.5-7.5,0.5-0.294,6.66c-0.165,3.75-0.838,7.12-1.54,7.7-0.685,0.568-4.15,1.17-7.71,1.34l-6.46,0.303v6.5,6.5h14.5,14.5l0.5-7.5,0.5-7.5h8.5,8.5l0.5,7.5,0.5,7.5,7.5,0.5,7.5,0.5v8.5,8.5h-8.5-8.5l-0.5-7.5-0.5-7.5h-6.5-6.5l-0.5,7.5-0.5,7.5-7.5,0.5-7.5,0.5v14.5,14.5l7.5,0.5,7.5,0.5,0.5,7.5,0.5,7.5h6.5,6.5l0.5-7.5,0.5-7.5h8.5,8.5v8.5,8.5l-7.5,0.5-7.5,0.5-0.5,7.5-0.5,7.5h-8.5-8.5l-0.5-7.5-0.5-7.5h-6.5-6.5v14.5,14.5l7.5,0.5,7.5,0.5,0.5,7.5,0.5,7.5,7.5,0.5,7.5,0.5v8.5,8.5h-32.5-32.5l-0.5-15.5-0.5-15.5-7.5-0.5-7.5-0.5-0.5-7.5-0.5-7.5h-14.5-14.5l-0.5,7.5-0.5,7.5-7.5,0.5-7.5,0.5-0.5,15.5-0.5,15.5-32.3,0.264c-29.8,6-35.8,6-36.2,4z"/>
<path fill="#adabac" d="m11,267c-0.289-0.753-0.39-4.25-0.224-7.76l0.301-6.39,7.5-0.5,7.5-0.5,0.5-7.5,0.5-7.5,7.5-0.5,7.5-0.5,0.5-15.5,0.5-15.5,7.5-0.5,7.5-0.5v-15.5-15.5l-7.5-0.5-7.5-0.5v-23.5-23.5l6.96-0.3c3.83-0.165,7.56-0.799,8.29-1.41,0.926-0.768,1.24-3.12,1.04-7.7l-0.292-6.59-16-0.5-16-0.5v-23.5-23.5l7.5-0.5,7.5-0.5,0.5-15.5,0.5-15.5,7.5-0.5,7.5-0.5,0.5-7.5,0.5-7.5h39.5,39.5l0.5,7.5,0.5,7.5,23.5,0.5,23.5,0.5v7.5,7.5l-14.9,0.278c-8.93,0.166-15.5,0.718-16.2,1.37-1.69,1.4-1.78,13-0.119,14.6,0.825,0.825,5.82,1.2,16,1.2h14.8v6.8c0,3.96,0.502,7.3,1.2,8,0.698,0.698,4.04,1.2,8,1.2h6.8v6.96,6.96l-7.25,0.294-7.25,0.294-0.5,8-0.5,8-6.96,0.3c-3.83,0.165-7.54,0.783-8.25,1.37-0.807,0.67-1.29,3.45-1.29,7.41v6.33l-7.25,0.294-7.25,0.294-0.297,7.4c-0.163,4.07,0.133,7.83,0.659,8.36,0.588,0.588,6.57,0.675,15.5,0.226l14.6-0.729v-6.68c0-3.86,0.506-7.19,1.2-7.88,1.58-1.58,14-1.58,15.6,0,0.698,0.698,1.2,4.04,1.2,8v6.8h6.8c3.96,0,7.3,0.502,8,1.2,1.58,1.58,1.58,14,0,15.6-0.691,0.691-4,1.2-7.8,1.2s-7.11-0.509-7.8-1.2c-0.698-0.698-1.2-4.04-1.2-8v-6.8h-7-7v6.8c0,3.96-0.502,7.3-1.2,8-0.698,0.698-4.04,1.2-8,1.2h-6.8v15,15h6.8c3.96,0,7.3,0.502,8,1.2,0.698,0.698,1.2,4.04,1.2,8v6.8h7,7v-6.8c0-3.96,0.502-7.3,1.2-8,1.58-1.58,14-1.58,15.6,0,1.58,1.58,1.58,14,0,15.6-0.698,0.698-4.04,1.2-8,1.2h-6.8v6.8c0,3.96-0.502,7.3-1.2,8-1.58,1.58-14,1.58-15.6,0-0.698-0.698-1.2-4.04-1.2-8v-6.8h-7.53-7.53l0.276,15.2,0.276,15.2,7.5,0.5,7.5,0.5,0.5,7.5,0.5,7.5,7.5,0.5,7.5,0.5v7.5,7.5h-31.5-31.5l-0.5-15.5-0.5-15.5-7.5-0.5-7.5-0.5-0.5-7.5-0.5-7.5h-15.5-15.5l-0.5,7.5-0.5,7.5-7.5,0.5-7.5,0.5-0.5,15.5-0.5,15.5-31.3,0.264c-25.7,0.217-31.4,0.0217-31.8-1.11zm142-80c-0.334-0.87-0.607-7.62-0.607-15v-13.4h-6.5-6.5v7.38c0,8.62,0.2,8.47-10.8,7.82l-7.25-0.431v-7.39-7.39h-14.5-14.5v14,14l13.7,0.0703c7.56,0.0386,14.6,0.457,15.8,0.93,1.1,0.473,8.69,0.891,16.9,0.93,13.2,0.0622,14.8-0.111,14.2-1.51z"/>
<path fill="#f69534" d="m11,267c-0.289-0.753-0.39-4.25-0.224-7.76l0.301-6.39,7.5-0.5,7.5-0.5,0.5-7.5,0.5-7.5,7.5-0.5,7.5-0.5,0.5-15.5,0.5-15.5,7.5-0.5,7.5-0.5v-15.5-15.5l-7.5-0.5-7.5-0.5v-23.5-23.5l6.96-0.3c3.83-0.165,7.56-0.799,8.29-1.41,0.926-0.768,1.24-3.12,1.04-7.7l-0.292-6.59-16-0.5-16-0.5v-23.5-23.5l7.5-0.5,7.5-0.5,0.5-15.5,0.5-15.5,7.5-0.5,7.5-0.5,0.5-7.5,0.5-7.5h39.5,39.5l0.5,7.5,0.5,7.5,23.5,0.5,23.5,0.5v7.5,7.5l-14.9,0.278c-8.93,0.166-15.5,0.718-16.2,1.37-1.69,1.4-1.78,13-0.119,14.6,0.825,0.825,5.82,1.2,16,1.2h14.8v6.8c0,3.96,0.502,7.3,1.2,8,0.698,0.698,4.04,1.2,8,1.2h6.8v6.96,6.96l-7.25,0.294-7.25,0.294-0.5,8-0.5,8-6.96,0.3c-3.83,0.165-7.54,0.783-8.25,1.37-0.807,0.67-1.29,3.45-1.29,7.41v6.33l-7.25,0.294-7.25,0.294v8,8l15.5,0.5,15.5,0.5,0.293,7.22c0.334,8.23,0.562,8.03-9.79,8.52l-5.5,0.259v15.5,15.5l6.46,0.303c3.55,0.167,7.06,0.8,7.79,1.41,0.922,0.765,1.24,3.13,1.04,7.7l-0.292,6.59-7.5,0.5-7.5,0.5v15.5,15.5l7.5,0.5,7.5,0.5,0.5,7.5,0.5,7.5,7.5,0.5,7.5,0.5v7.5,7.5h-31.5-31.5l-0.5-15.5-0.5-15.5-7.5-0.5-7.5-0.5-0.5-7.5-0.5-7.5h-15.5-15.5l-0.5,7.5-0.5,7.5-7.5,0.5-7.5,0.5-0.5,15.5-0.5,15.5-31.3,0.264c-25.7,0.217-31.4,0.0217-31.8-1.11zm143-94.7,0-15.5-7.71-0.291-7.71-0.291-0.293,7.79-0.293,7.79-7.5,0-7.5,0-0.293-7.78-0.292-7.78-15.7,0.275-15.7,0.275-0.279,14.5c-0.153,7.95-0.0524,15,0.224,15.8,0.403,1.05,6.72,1.26,31.8,1.05l31.3-0.264v-15.5zm33,45.7c-0.324-1.29-0.45-4.8-0.28-7.79l0.309-5.45h7.5,7.5v7.5,7.5l-7.22,0.293c-6.85,0.278-7.25,0.174-7.81-2.05zm16.2-14.4c-0.981-0.981-0.86-12.6,0.149-14.2,0.579-0.912,2.88-1.21,7.73-1l6.91,0.299v7.5,7.5l-7.04,0.29c-3.87,0.159-7.36-0.0282-7.75-0.417zm-0.272-48.7c-0.295-0.77-0.401-4.28-0.236-7.79l0.301-6.39h7.5,7.5v7.5,7.5l-7.26,0.294c-5.51,0.223-7.39-0.0443-7.8-1.11zm-16-16c-0.295-0.77-0.401-4.28-0.236-7.79l0.301-6.39h7.5,7.5v7.5,7.5l-7.26,0.294c-5.51,0.223-7.39-0.0443-7.8-1.11z"/>
<path fill="#ad9d58" d="m11,267c-0.286-0.745-0.384-4.23-0.219-7.75l0.301-6.39,7.5-0.5,7.5-0.5,0.5-7.5,0.5-7.5,6-0.257c11.3-0.484,10.4,0.834,10.7-16l0.277-14.7,7.5-0.5,7.5-0.5,0.273-4c0.15-2.2-0.075-9.4-0.5-16l-0.773-12-7.5-0.5-7.5-0.5v-23.5-23.5l8-0.5c4.4-0.275,29.5-0.379,55.7-0.231l47.7,0.269,0.292,7.73,0.292,7.73,15.5,0.5,15.5,0.5,0.293,7.22c0.334,8.23,0.562,8.03-9.79,8.52l-5.5,0.259v15.5,15.5l6.46,0.303c3.55,0.167,7.06,0.8,7.79,1.41,0.922,0.765,1.24,3.13,1.04,7.7l-0.292,6.59-6,0.257c-11.4,0.488-10.5-0.883-10.5,16.2s-0.887,15.8,10.5,16.2l6,0.257,0.5,7.5,0.5,7.5,7.5,0.5,7.5,0.5v7.5,7.5l-30.9,0.265c-17,0.146-31.3-0.083-31.7-0.508-0.425-0.425-0.833-7.86-0.907-16.5l-0.134-15.7h-7.37-7.37l-0.292-7.75-0.292-7.75h-16.5-16.5l-0.292,7.75-0.292,7.75h-7.37-7.37l-0.133,15.7c-0.0733,8.61-0.366,16-0.651,16.5-0.285,0.461-14.5,0.837-31.5,0.837-25.1,0-31.1-0.255-31.5-1.36zm144-70c0-4.88-0.392-7.5-1.12-7.5-0.817,0-0.809-0.377,0.0274-1.39,0.782-0.942,1.06-6.14,0.872-16.2l-0.277-14.9-7.71-0.291-7.71-0.291-0.293,7.79-0.293,7.79h-7.5-7.5l-0.293-7.78-0.293-7.78-15.7,0.275-15.7,0.275v15.5,15.5l16.5,0.271,16.5,0.271-0.326,7.98-0.326,7.98h15.6,15.6v-7.5zm32.5,21.2c-0.324-1.29-0.45-4.8-0.28-7.79l0.309-5.45h7.5,7.5v7.5,7.5l-7.22,0.293c-6.85,0.278-7.25,0.174-7.81-2.05zm16.2-14.4c-0.981-0.981-0.86-12.6,0.149-14.2,0.579-0.912,2.88-1.21,7.73-1l6.91,0.299v7.5,7.5l-7.04,0.29c-3.87,0.159-7.36-0.0282-7.75-0.417zm-0.272-48.7c-0.295-0.77-0.401-4.28-0.236-7.79l0.301-6.39h7.5,7.5v7.5,7.5l-7.26,0.294c-5.51,0.223-7.39-0.0443-7.8-1.11zm-16-16c-0.295-0.77-0.401-4.28-0.236-7.79l0.301-6.39h7.5,7.5v7.5,7.5l-7.26,0.294c-5.51,0.223-7.39-0.0443-7.8-1.11zm-40.4-30.7-23.5-0.5,0-7.5,0-7.5,7.5-0.5,7.5-0.5,0.291-7.71,0.291-7.71-7.79-0.293-7.79-0.293-0.275-15.8-0.275-15.8-15.9,0-15.9,0-0.292,7.75-0.292,7.75-7.5,0.5-7.5,0.5,0,7.5,0,7.5,7.5,0.5,7.5,0.5,0,7.5,0,7.5-15.8,0.275-15.8,0.275,0,8,0,8-15.8-0.275-15.8-0.275,0-23.5,0-23.5,7.5-0.5,7.5-0.5,0.863-15.2,0.863-15.2,7.64-0.29,7.64-0.29,0.292-7.75,0.292-7.75,38.9,0,38.9,0,0.292,7.75,0.292,7.75,23.8,0.268,23.8,0.268,0,6.98,0,6.98-11.3,0c-6.24,0-16.8,0.294-23.5,0.654l-12.2,0.654v15.8,15.8l7.75,0.292,7.75,0.292,0.5,7.5,0.5,7.5,15.8,0.275,15.8,0.275v7.51c0,5.12-0.397,7.63-1.25,7.91-2.57,0.833-15.9,1.02-38.8,0.531zm-88.2-31.8-0.275-15.8-7.5,0-7.5,0-0.279,14.5c-0.153,7.95-0.0549,15,0.219,15.8,0.347,0.903,2.79,1.3,8.05,1.3h7.56l-0.275-15.8z"/>
<path fill="#5b43f3" d="m12,266c-0.292-0.761-0.393-3.81-0.224-6.76l0.307-5.38,7.5-0.5,7.5-0.5,0.5-7.5,0.5-7.5,7.5-0.5,7.5-0.5,0.5-15.5,0.5-15.5,7.5-0.5,7.5-0.5v-16.5-16.5l-7.5-0.5-7.5-0.5v-22.5-22.5l11-0.747c6.05-0.411,30.6-0.636,54.5-0.5l43.5,0.247,0.5,8,0.5,8h16,16l0.3,6.34c0.397,8.38-0.364,9.16-8.92,9.16h-6.88v16,16h6.88c8.56,0,9.32,0.781,8.92,9.16l-0.3,6.34-8.27,0.291-8.27,0.291,0.275,16.2,0.275,16.2,7.5,0.5,7.5,0.5,0.5,7.5,0.5,7.5,7.5,0.5,7.5,0.5v6.5,6.5h-30.5-30.5l-0.5-15.5-0.5-15.5-7.71-0.291-7.71-0.291-0.291-7.71-0.291-7.71h-16.5-16.5l-0.291,7.71-0.291,7.71-7.71,0.291-7.71,0.291-0.5,15.5-0.5,15.5-30.3,0.265c-25,0.219-30.4,0.0254-30.8-1.12zm142-85.4-0.268-23.8-7.71-0.291-7.71-0.291-0.293,7.79-0.293,7.79-7.5,0-7.5,0-0.293-7.78-0.292-7.78-15.7,0.275-15.7,0.275,0,15.5,0,15.5,15.5,0.5,15.5,0.5,0.259,5.5c0.511,10.8-0.903,10,16.8,10h15.5l-0.268-23.8zm33.3,38.3c-0.705-0.85-1.05-3.94-0.872-7.75l0.3-6.34h7.5,7.5l0.3,6.34c0.385,8.14-0.483,9.16-7.8,9.16-3.74,0-6.17-0.495-6.93-1.41zm15.6-15.3c-1.17-1.17-0.723-12.9,0.533-14.1,0.66-0.66,3.72-1.2,6.8-1.2s6.14,0.54,6.8,1.2,1.2,3.72,1.2,6.8-0.54,6.14-1.2,6.8c-1.26,1.26-13,1.7-14.1,0.533zm0.406-48.7c-0.705-0.85-1.05-3.94-0.872-7.75l0.3-6.34,6.34-0.3c3.81-0.18,6.9,0.167,7.75,0.872,1.76,1.46,1.93,12,0.213,13.7-1.72,1.72-12.3,1.55-13.7-0.213zm-16.4-15.2c-1.19-1.19-0.787-12.9,0.494-14.2,1.72-1.72,12.3-1.55,13.7,0.213,0.705,0.85,1.05,3.94,0.872,7.75l-0.3,6.34-7.04,0.29c-3.87,0.159-7.36-0.0282-7.75-0.417zm-64.3-32.7c-0.286-0.745-0.384-4.23-0.219-7.75l0.301-6.39,7.5-0.5,7.5-0.5,0.291-7.71,0.291-7.71-7.79-0.293-7.79-0.293-0.275-15.8-0.275-15.8h-15.9-15.9l-0.292,7.75-0.292,7.75-7.5,0.5-7.5,0.5v7.5,7.5l7.5,0.5,7.5,0.5v7.5,7.5l-15.7,0.275-15.7,0.275-0.293,7.22-0.293,7.22h-15-15v-22.5-22.5l7.22-0.293,7.22-0.293,0.276,15.3,0.276,15.3,7.78,0.293,7.78,0.293-0.276-15.8-0.276-15.8-7.25-0.294-7.25-0.294v-15.4-15.4l7.75-0.292,7.75-0.292,0.292-7.75,0.292-7.75h38.9,38.9l0.292,7.75,0.292,7.75,23.8,0.268,23.8,0.268v6.98,6.98h-11.3c-6.24,0-16.8,0.294-23.5,0.654l-12.2,0.654v15.8,15.8l7.75,0.292,7.75,0.292,0.5,7.5,0.5,7.5,15,0.5,15,0.5v7,7l-9,0.644c-4.95,0.354-18.8,0.692-30.8,0.75-17.5,0.085-21.9-0.162-22.3-1.25z"/>
<path fill="#5c5a5c" d="m12,266c-0.292-0.761-0.393-3.81-0.224-6.76l0.307-5.38,7.5-0.5,7.5-0.5,0.5-7.5,0.5-7.5,7.5-0.5,7.5-0.5,0.5-15.5,0.5-15.5,7.5-0.5,7.5-0.5v-16.5-16.5l-7.5-0.5-7.5-0.5v-22.5-22.5l11-0.747c6.05-0.411,30.6-0.636,54.5-0.5l43.5,0.247,0.5,8,0.5,8h16,16l0.3,6.34c0.397,8.38-0.364,9.16-8.92,9.16h-6.88v16,16h6.88c8.56,0,9.32,0.781,8.92,9.16l-0.3,6.34-8.27,0.291-8.27,0.291,0.275,16.2,0.275,16.2,7.5,0.5,7.5,0.5,0.5,7.5,0.5,7.5,7.5,0.5,7.5,0.5v6.5,6.5h-30.5-30.5l-0.5-15.5-0.5-15.5-7.71-0.291-7.71-0.291-0.291-7.71-0.291-7.71h-16.5-16.5l-0.291,7.71-0.291,7.71-7.71,0.291-7.71,0.291-0.5,15.5-0.5,15.5-30.3,0.265c-25,0.219-30.4,0.0254-30.8-1.12zm142-85.4-0.268-23.8-31.5,0-31.5,0,0,15.5,0,15.5,15.5,0.5,15.5,0.5,0.259,5.5c0.511,10.8-0.903,10,16.8,10h15.5l-0.268-23.8zm33.3,38.3c-0.705-0.85-1.05-3.94-0.872-7.75l0.3-6.34h7.5,7.5l0.3,6.34c0.385,8.14-0.483,9.16-7.8,9.16-3.74,0-6.17-0.495-6.93-1.41zm15.6-15.3c-1.17-1.17-0.723-12.9,0.533-14.1,0.66-0.66,3.72-1.2,6.8-1.2s6.14,0.54,6.8,1.2,1.2,3.72,1.2,6.8-0.54,6.14-1.2,6.8c-1.26,1.26-13,1.7-14.1,0.533zm0.406-48.7c-0.705-0.85-1.05-3.94-0.872-7.75l0.3-6.34,6.34-0.3c3.81-0.18,6.9,0.167,7.75,0.872,1.76,1.46,1.93,12,0.213,13.7-1.72,1.72-12.3,1.55-13.7-0.213zm-16.4-15.2c-1.19-1.19-0.787-12.9,0.494-14.2,1.72-1.72,12.3-1.55,13.7,0.213,0.705,0.85,1.05,3.94,0.872,7.75l-0.3,6.34-7.04,0.29c-3.87,0.159-7.36-0.0282-7.75-0.417zm-64.3-32.7c-0.286-0.745-0.384-4.23-0.219-7.75l0.301-6.39,7.5-0.5,7.5-0.5,0.291-7.71,0.291-7.71-7.79-0.293-7.79-0.293-0.275-15.8-0.275-15.8h-15.9-15.9l-0.292,7.75-0.292,7.75-7.5,0.5-7.5,0.5v7.5,7.5l7.5,0.5,7.5,0.5v7.5,7.5l-15.7,0.275-15.7,0.275-0.293,7.22-0.293,7.22h-15-15v-22.5-22.5l7.22-0.293,7.22-0.293,0.276,15.3,0.276,15.3,7.78,0.293,7.78,0.293-0.276-15.8-0.276-15.8-7.25-0.294-7.25-0.294v-15.4-15.4l7.75-0.292,7.75-0.292,0.292-7.75,0.292-7.75h38.9,38.9l0.292,7.75,0.292,7.75,23.8,0.268,23.8,0.268v6.98,6.98h-11.3c-6.24,0-16.8,0.294-23.5,0.654l-12.2,0.654v15.8,15.8l7.75,0.292,7.75,0.292,0.5,7.5,0.5,7.5,15,0.5,15,0.5v7,7l-9,0.644c-4.95,0.354-18.8,0.692-30.8,0.75-17.5,0.085-21.9-0.162-22.3-1.25z"/>
<path fill="#e01f00" d="m12,266c-0.292-0.761-0.393-3.81-0.224-6.76l0.307-5.38,7.5-0.5,7.5-0.5,0.5-7.5,0.5-7.5,7.5-0.5,7.5-0.5,0.5-15.5,0.5-15.5,7.5-0.5,7.5-0.5v-16.5-16.5l-7.5-0.5-7.5-0.5v-22.5-22.5l11-0.747c6.05-0.411,30.6-0.636,54.5-0.5l43.5,0.247,0.29,8.25,0.29,8.25h4.8c2.64,0,9.6,0.293,15.5,0.652l10.7,0.652v5.85,5.85h-6.8c-3.96,0-7.3,0.502-8,1.2-1.68,1.68-1.68,31.9,0,33.6,0.698,0.698,4.04,1.2,8,1.2h6.8v6,6h-6.98c-8.56,0-8.2-0.9-7.81,19.5l0.287,15,7.5,0.5,7.5,0.5,0.5,7.5,0.5,7.5,7.5,0.5,7.5,0.5v6.5,6.5h-30.5-30.5l-0.5-15.5-0.5-15.5-7.71-0.291-7.71-0.291-0.291-7.71-0.291-7.71h-16.5-16.5l-0.291,7.71-0.291,7.71-7.71,0.291-7.71,0.291-0.5,15.5-0.5,15.5-30.3,0.265c-25,0.219-30.4,0.0254-30.8-1.12zm143-69c0-4.4,0.338-8,0.75-8,0.412,0.00074,0.617-7.41,0.454-16.5l-0.296-16.5-32.3-0.277c-20.7-0.177-32.6,0.0845-33.2,0.723-1.23,1.41-1.12,32,0.123,33.1,0.55,0.482,7.75,0.877,16,0.877h15l0.303,5.85c0.167,3.22,0.842,6.46,1.5,7.21,0.909,1.04,4.86,1.37,16.4,1.4l15.2,0.038v-8zm34,16,0-6,6,0,6,0,0,6,0,6-6,0-6,0,0-6zm16-16,0-6,6,0,6,0,0,6,0,6-6,0-6,0,0-6zm-0.291-43.3c-0.278-0.724-0.267-3.42,0.0231-6l0.528-4.68h5.87,5.87v6,6h-5.89c-3.95,0-6.06-0.434-6.4-1.32zm-15.7-20.7,0-6,5.89,0c5.78,0,5.89,0.0563,6.33,3,0.242,1.65,0.242,4.35,0,6-0.432,2.94-0.551,3-6.33,3h-5.89v-6zm-65.6-25.4c-0.286-0.745-0.384-4.23-0.219-7.75l0.301-6.39,7.5-0.5,7.5-0.5,0.291-7.71,0.291-7.71-7.79-0.293-7.79-0.293-0.275-15.8-0.275-15.8h-15.9-15.9l-0.292,7.75-0.292,7.75-7.5,0.5-7.5,0.5v7.5,7.5l7.5,0.5,7.5,0.5v7.5,7.5l-15.7,0.275-15.7,0.275-0.293,7.22-0.293,7.22h-15-15v-22.5-22.5l7.22-0.293,7.22-0.293,0.276,15.3,0.276,15.3,7.78,0.293,7.78,0.293-0.276-15.8-0.276-15.8-7.25-0.294-7.25-0.294v-15.4-15.4l7.75-0.292,7.75-0.292,0.292-7.75,0.292-7.75h38.9,38.9l0.292,7.75,0.292,7.75,23.8,0.268,23.8,0.268v6.98,6.98h-11.3c-6.24,0-16.8,0.294-23.5,0.654l-12.2,0.654v15.8,15.8l7.75,0.292,7.75,0.292,0.5,7.5,0.5,7.5,15,0.5,15,0.5v7,7l-9,0.644c-4.95,0.354-18.8,0.692-30.8,0.75-17.5,0.085-21.9-0.162-22.3-1.25z"/>
<path fill="#de1e00" d="m12,266c-0.292-0.761-0.393-3.81-0.224-6.76l0.307-5.38,7.5-0.5,7.5-0.5,0.5-7.5,0.5-7.5,7.16-0.292c4.04-0.165,7.59-0.818,8.15-1.5,0.541-0.664,1.22-6.79,1.52-13.6,0.611-14.1,1.17-15.1,7.42-13.5,3.2,0.858,2.78,2.18-1,3.15-2.84,0.731-3.29,1.3-3.56,4.53-0.171,2.03-0.733,3.69-1.25,3.69s-0.94,2.88-0.94,6.39c0,4.83,0.376,6.54,1.54,6.98,0.875,0.336,1.78-0.0491,2.11-0.893,0.313-0.816,1.22-1.48,2.02-1.48,0.799,0,1.18,0.437,0.852,0.971-0.33,0.534,0.56,1.26,1.98,1.62,3.53,0.885,14.5,0.004,15.3-1.23,1.28-1.91,4.44-2.41,6.56-1.03,1.16,0.753,4.36,1.38,7.11,1.4,2.75,0.0159,4.44-0.178,3.75-0.43-0.688-0.252-1.24-1.43-1.23-2.63,0.0122-1.73,0.204-1.87,0.947-0.694,0.647,1.02,1.05-0.503,1.32-5,0.328-5.53,0.372-5.31,0.304,1.53l-0.0806,8-7.23,0.293-7.23,0.293-0.275,16.2-0.275,16.2-30.3,0.265c-25,0.219-30.4,0.0254-30.8-1.12zm128,0.702c-0.375-0.375-0.681-7.81-0.681-16.5v-15.8h-7.5-7.5l0.185-6.75c0.182-6.65,0.19-6.67,0.56-1.29,0.263,3.84,0.65,5.03,1.3,4,0.772-1.22,0.928-1.17,0.94,0.287,0.008,0.962-0.547,1.82-1.23,1.9-0.688,0.0852,2.58,0.49,7.25,0.901,12.4,1.09,29.3,1.06,31-0.0556,1.28-0.828,1.25-0.972-0.25-0.985-0.962-0.008-1.75-0.39-1.75-0.849,0-2.65,3.89-2.01,4.18,0.69,0.0971,0.904,0.468-1.51,0.823-5.36l0.647-7,0.177,7.63c0.112,4.82,0.652,8.02,1.47,8.7,0.71,0.59,4.42,1.21,8.25,1.37l6.96,0.3,0.5,7.5,0.5,7.5,7.5,0.5,7.5,0.5v6.5,6.5l-30.1,0.264c-16.5,0.145-30.4-0.0421-30.8-0.417zm-7.92-36.9,0.481-2.52,1.88,2.17c2.38,2.75,2.37,2.86-0.481,2.86-1.98,0-2.28-0.403-1.88-2.52zm-63.1-1.98c-0.434-1.13,0.173-1.5,2.46-1.5,2.7,0,2.87,0.167,1.54,1.5-0.825,0.825-1.93,1.5-2.46,1.5s-1.22-0.675-1.54-1.5zm12.4-0.312c0-2.8,1.74-7.19,2.86-7.19,1.1,0,2.08,4.54,1.24,5.69-0.329,0.448-1.39,1.43-2.35,2.19-1.54,1.21-1.75,1.13-1.75-0.685zm-33-2.69c0-3.41,1.22-4.58,2.54-2.44,0.871,1.41-0.314,5.94-1.55,5.94-0.54,0-0.981-1.58-0.981-3.5zm80-0.5c0-2.09,0.425-3.02,1.25-2.75,0.688,0.229,1.25,1.47,1.25,2.75s-0.562,2.52-1.25,2.75c-0.825,0.275-1.25-0.661-1.25-2.75zm-30.7-6.75c4.84-0.184,12.5-0.183,17,0.002,4.51,0.185,0.551,0.335-8.8,0.334s-13-0.152-8.2-0.336zm90.7-5.25,0-6,6,0,6,0,0,6,0,6-6,0-6,0,0-6zm-102,3c0.34-0.55,0.816-1,1.06-1,0.243,0,0.441,0.45,0.441,1s-0.477,1-1.06,1c-0.582,0-0.781-0.45-0.441-1zm30.5-1.5c0-1.38,0.45-2.5,1-2.5s0.993-1.01,0.985-2.25c-0.0127-1.86-0.198-1.99-1.08-0.75-0.798,1.13-1.19,1.19-1.57,0.25-0.367-0.905-3.91-1.25-12.9-1.25-15,0-15.5-0.279-15.5-9.57v-6.43h-5.59c-4.31,0-5.97,0.447-7.25,1.95-1.89,2.22-7.16,1.81-7.16-0.567,0-0.761-0.675-1.38-1.5-1.38s-1.5,0.675-1.5,1.5-0.461,1.5-1.02,1.5c-1.86,0-3.37-5.38-3.93-14l-0.55-8.5-7.5-0.5-7.5-0.5v-22.5-22.5l14.7-0.875c11.4-0.674,15.1-0.589,16.2,0.372,1.2,0.996,1.5,3.94,1.5,14.6v13.4h5.5c4.89,0,5.5-0.23,5.5-2.06,0-1.13-0.399-1.81-0.886-1.51-0.487,0.301-1.16-0.46-1.49-1.69-0.923-3.44-0.738-7.55,0.373-8.24,0.55-0.34,1.01-1.6,1.02-2.81,0.0127-1.82,0.194-1.94,1.08-0.691,0.782,1.1,0.914,0.0146,0.495-4.09-0.517-5.06-0.361-5.7,1.67-6.77,1.62-0.86,10.7-1.11,32.7-0.913l30.5,0.274,0.29,8.25,0.29,8.25h4.8c2.64,0,9.6,0.293,15.5,0.652l10.7,0.652v5.85,5.85h-6.8c-3.96,0-7.3,0.502-8,1.2-1.68,1.68-1.68,31.9,0,33.6,0.698,0.698,4.04,1.2,8,1.2h6.8v6,6h-6.59c-5.61,0-6.87,0.334-8.47,2.25-1.03,1.24-1.89,2.84-1.91,3.57-0.0183,0.727-0.656,1.94-1.42,2.71-1.18,1.18-1.47,0.954-1.96-1.51-0.518-2.59-1.04-2.93-4.87-3.21l-4.29-0.309-0.289-8.75c-0.159-4.81,0.0661-8.75,0.5-8.75,0.434,0.00074,0.656-7.41,0.493-16.5l-0.296-16.5-32.3-0.277c-20.7-0.177-32.6,0.0845-33.2,0.723-1.23,1.41-1.12,32,0.123,33.1,0.55,0.482,7.75,0.877,16,0.877h15l0.298,6.25c0.164,3.44,0.698,6.25,1.19,6.25,0.489,0,0.865,1.77,0.835,3.92-0.0354,2.57-0.459,3.77-1.22,3.48-0.643-0.247-1.17,0.411-1.17,1.46s0.506,1.72,1.13,1.48c0.619-0.238,1.76,0.338,2.54,1.28,1.29,1.56,1.17,1.65-1.34,1.03-1.65-0.411-2.75-0.277-2.75,0.334,0,0.56-0.9,1.02-2,1.02-1.47,0-2-0.667-2-2.5zm20.5-5.5-13-0.592,16-0.134c9.68-0.081,15.2,0.205,14,0.726-1.1,0.473-2.45,0.799-3,0.726-0.55-0.0736-6.85-0.4-14-0.726zm-52.5-1.06c0-0.582,0.45-0.781,1-0.441s1,0.816,1,1.06c0,0.243-0.45,0.441-1,0.441s-1-0.477-1-1.06zm-23.2-3.44c-0.243-0.243-0.257-2.03-0.031-3.96,0.481-4.12,2.19-3.76,2.19,0.461,0,2.68-1.14,4.53-2.16,3.5zm143-7.5,0-6,6,0,6,0,0,6,0,6-6,0-6,0,0-6zm-138,0.92c1.19-0.692,2.31-0.692,3.5,0,1.43,0.832,1.11,1.02-1.75,1.02s-3.18-0.188-1.75-1.02zm15.8-2.92c0-0.55,0.477-1,1.06-1,0.582,0,0.781,0.45,0.441,1s-0.816,1-1.06,1c-0.243,0-0.441-0.45-0.441-1zm123-41c-0.278-0.724-0.267-3.42,0.0231-6l0.528-4.68h5.87,5.87v6,6h-5.89c-3.95,0-6.06-0.434-6.4-1.32zm-122-14c0-2.38,1.54-2.65,2.39-0.418,0.858,2.24,0.79,2.42-0.893,2.42-0.833,0-1.5-0.889-1.5-2zm107-6,0-6,5.89,0c5.78,0,5.89,0.0563,6.33,3,0.242,1.65,0.242,4.35,0,6-0.432,2.94-0.551,3-6.33,3h-5.89v-6zm-106,2c0.34-0.55,0.816-1,1.06-1,0.243,0,0.441,0.45,0.441,1s-0.477,1-1.06,1c-0.582,0-0.781-0.45-0.441-1zm40.9-27.4c-0.286-0.745-0.384-4.23-0.219-7.75l0.301-6.39,7.5-0.5,7.5-0.5,0.291-7.71,0.291-7.71-7.79-0.293-7.79-0.293v-16.5-16.5l6.89-0.829c5.35-0.644,7.08-0.532,7.73,0.5,0.464,0.731,0.85,8.62,0.858,17.5l0.0153,16.2,7.75,0.292,7.75,0.292,0.5,7.5,0.5,7.5,15,0.5,15,0.5v7,7l-9,0.644c-4.95,0.354-18.8,0.692-30.8,0.75-17.5,0.085-21.9-0.162-22.3-1.25zm-95-0.893c-0.275-0.716-0.378-11-0.229-22.8l0.271-21.5,7.22-0.293,7.22-0.293,0.276,15.3,0.276,15.3,7.78,0.293,7.78,0.293-0.276-15.8-0.276-15.8-7.25-0.294-7.25-0.294,0.0052-5.21c0.0028-2.86,0.296-9.59,0.651-15l0.646-9.75,7.1,0.177,7.1,0.177-7,0.647c-3.85,0.356-6.44,0.726-5.75,0.823,0.688,0.0971,1.22,1.19,1.18,2.43-0.0671,2.15-0.11,2.16-0.93,0.25-0.666-1.55-0.875-1.04-0.93,2.25-0.0596,3.61,0.232,4.25,1.93,4.25,1.1,0,2-0.45,2-1s0.675-1,1.5-1,1.39,0.562,1.25,1.25c-0.193,0.965,4.03,1.25,18.5,1.23,21.7-0.0216,20-0.951,19.5,11l-0.301,6.98-7.5,0.5-7.5,0.5v7.5,7.5l7.5,0.5,7.5,0.5v7.5,7.5l-15.7,0.275-15.7,0.275-0.293,7.22-0.293,7.22-14.8,0.277c-11.4,0.214-14.9-0.0195-15.3-1.02zm61-65.2c-1.33-1.34-0.187-4.08,1.71-4.08,1.81,0,1.93,0.228,0.823,1.57-1.17,1.41,0.247,1.54,14.4,1.33,8.62-0.13,16,0.0441,16.3,0.386,0.342,0.342-6.89,0.756-16.1,0.92-9.19,0.164-16.9,0.11-17.1-0.119zm48,0.0128c-1.09-1.09-0.296-5.1,1.01-5.1,2.01,0,2.85,1.7,1.33,2.68-0.801,0.518,0.387,1.02,3.23,1.36l4.5,0.539-4.82,0.474c-2.65,0.261-5.01,0.281-5.25,0.0443zm15.7,0.47c0.269-0.269,7.22-0.571,15.4-0.673,8.23-0.101,14.4-0.381,13.7-0.622-0.688-0.241-1.25-1.04-1.25-1.77,0-0.733-0.562-1.6-1.25-1.92-1-0.467-1-0.7,0-1.17,0.688-0.321,1.25-1.18,1.25-1.92,0-0.733,0.562-1.54,1.25-1.79s-9.08-0.529-21.7-0.62c-12.6-0.0916-23.2-0.383-23.4-0.648-0.265-0.265,10.1-0.361,23-0.213l23.4,0.269v5.5,5.5l-15.4,0.277c-8.49,0.152-15.2,0.0574-15-0.211zm-2.6-2.57c0.995-1.1,1.98-2,2.19-2,0.209,0-0.101,0.9-0.69,2s-1.57,2-2.19,2c-0.616,0-0.305-0.9,0.69-2zm-66.4-2.8c-1.06-1.98-0.886-2.11,2.91-2.11,2.22,0,4.04,0.45,4.04,1s-0.81,1-1.8,1-2.3,0.498-2.91,1.11c-0.81,0.81-1.41,0.541-2.24-1zm-31-2.2c-0.907-1.7-0.76-2,0.965-2,1.37,0,2.04,0.655,2.04,2,0,1.1-0.434,2-0.965,2s-1.45-0.9-2.04-2zm4.5,0.993c-0.342-0.554,0.101-1.28,0.984-1.62,1.91-0.735,2.98,0.0749,2.06,1.56-0.83,1.34-2.23,1.37-3.05,0.0595zm75.9-2c-0.34-0.55-0.141-1,0.441-1s1.06,0.45,1.06,1-0.198,1-0.441,1-0.719-0.45-1.06-1zm1.85-11c0-4.68,0.172-6.59,0.383-4.25s0.211,6.16,0,8.5-0.383,0.425-0.383-4.25zm-5.37,3.43c-1.43-3.75-1.2-6.14,0.668-6.85,2.02-0.776,2.11-0.684,2.37,2.42,0.583,7.01-1.12,9.49-3.04,4.43zm-69.6-4.93c0.0044-3.85,0.185-5.3,0.402-3.23,0.216,2.07,0.213,5.22-0.0081,7s-0.398,0.0777-0.394-3.77zm3.67,0.0833c0-5.28,0.307-6.58,1.55-6.58,1.26,0,1.49,1.14,1.25,6.17-0.184,3.82-0.774,6.33-1.55,6.58-0.915,0.302-1.25-1.35-1.25-6.17z"/>
<path fill="#8a6f02" d="m12,266c-0.292-0.761-0.393-3.81-0.224-6.76l0.307-5.38,7.5-0.5,7.5-0.5,0.5-7.5,0.5-7.5,8.5-0.651c4.68-0.358,14.9-0.695,22.8-0.75l14.3-0.0993-0.276,15.2-0.276,15.2-30.3,0.265c-25,0.219-30.4,0.0254-30.8-1.12zm128,0.702c-0.375-0.375-0.681-7.36-0.681-15.5v-14.8l14.2,0.0993c7.84,0.0546,18.1,0.392,22.8,0.75l8.5,0.651,0.5,7.5,0.5,7.5,7.5,0.5,7.5,0.5v6.5,6.5l-30.1,0.264c-16.5,0.145-30.4-0.0421-30.8-0.417zm48.3-54.3,0-6,6,0,6,0,0,6,0,6-6,0-6,0,0-6zm-97.8-15.2,0.294-7.25,15,0,15,0,0.298,6.25c0.164,3.44,0.726,6.25,1.25,6.25s0.952,0.45,0.952,1c0,0.626-6.18,1-16.5,1h-16.5l0.294-7.25zm63.8-0.75c0-4.4,0.338-8,0.75-8,0.412,0.00074,0.617-7.42,0.453-16.5l-0.297-16.5-32.2-0.264-32.2-0.264-0.276-15.3-0.276-15.3,31.3,0.264,31.3,0.264,0.29,8.25,0.29,8.25h4.8c2.64,0,9.6,0.293,15.5,0.652l10.7,0.652v5.85,5.85h-6.8c-3.96,0-7.3,0.502-8,1.2-1.68,1.68-1.68,31.9,0,33.6,0.698,0.698,4.04,1.2,8,1.2h6.8v6,6h-7c-4,0-7,0.429-7,1,0,0.583-3.33,1-8,1h-8v-8zm50,0,0-6,6,0,6,0,0,6,0,6-6,0-6,0,0-6zm-145-16.2-0.291-8.28-7.5-0.5-7.5-0.5-0.27-21.9c-0.149-12.1,0.0765-22.3,0.5-22.7,0.424-0.399,7.4-1.05,15.5-1.44l14.7-0.714,0.276,15.9,0.276,15.9,7,0.5,7,0.5v15.5,15.5l-14.7,0.276-14.7,0.276-0.291-8.28zm145-28c-0.278-0.724-0.267-3.42,0.0231-6l0.528-4.68h5.87,5.87v6,6h-5.89c-3.95,0-6.06-0.434-6.4-1.32zm-15.7-20.7,0-6,5.89,0c5.78,0,5.89,0.0563,6.33,3,0.242,1.65,0.242,4.35,0,6-0.432,2.94-0.551,3-6.33,3h-5.89v-6zm-65.6-25.4c-0.286-0.745-0.384-4.23-0.219-7.75l0.301-6.39,7.5-0.5,7.5-0.5,0.291-7.71,0.291-7.71-7.79-0.293-7.79-0.293-0.275-15.8-0.275-15.8h8.03,8.03v16,16l7.75,0.292,7.75,0.292,0.5,7.5,0.5,7.5,15,0.5,15,0.5v7,7l-9,0.644c-4.95,0.354-18.8,0.692-30.8,0.75-17.5,0.085-21.9-0.162-22.3-1.25zm-95-0.893c-0.275-0.716-0.378-11-0.229-22.8l0.271-21.5,7.22-0.293,7.22-0.293,0.276,15.3,0.276,15.3,7.78,0.293,7.78,0.293-0.276-15.8-0.276-15.8-7.25-0.294-7.25-0.294v-7.96-7.96h23.5,23.5l-0.292,7.75-0.292,7.75-7.5,0.5-7.5,0.5v7.5,7.5l7.5,0.5,7.5,0.5v7.5,7.5l-15.7,0.275-15.7,0.275-0.293,7.22-0.293,7.22-14.8,0.277c-11.4,0.214-14.9-0.0195-15.3-1.02z"/>
<path fill="#2e2e2d" d="m189,213,0-6,6,0,6,0,0,6,0,6-6,0-6,0,0-6zm-97.6-9.34c-0.293-0.764-0.396-4.04-0.229-7.28l0.304-5.89h15,15v7,7l-14.8,0.277c-11.9,0.222-14.9,0.004-15.3-1.11zm79.6-6.66,0-6,7,0,7,0,0,6,0,6-7,0-7,0,0-6zm34,0,0-6,6,0,6,0,0,6,0,6-6,0-6,0,0-6zm-130-10c-0.283-0.738-0.39-7.85-0.236-15.8l0.279-14.5h7,7v15.5,15.5l-6.76,0.296c-4.95,0.217-6.9-0.0636-7.28-1.05zm81.2,0.583c-0.367-0.367-0.667-7.57-0.667-16v-15.3h6.5,6.5v16,16h-5.83c-3.21,0-6.13-0.3-6.5-0.667zm-65.3-33.7c-0.287-0.749-0.386-4.01-0.219-7.25l0.304-5.89h31.5,31.5l0.294,7.25,0.294,7.25h-31.6c-25.7,0-31.7-0.252-32.1-1.36zm79.6-5.64,0-6,7,0,7,0,0,6,0,6-7,0-7,0,0-6zm33.7,4.68c-0.278-0.724-0.267-3.42,0.0231-6l0.528-4.68h5.87,5.87v6,6h-5.89c-3.95,0-6.06-0.434-6.4-1.32zm-15.7-20.7,0-6,5.89,0c5.78,0,5.89,0.0563,6.33,3,0.242,1.65,0.242,4.35,0,6-0.432,2.94-0.551,3-6.33,3h-5.89v-6z"/>
</g>
</g>
</svg>
